<svg width="49" height="24" viewBox="0 0 49 24" fill="none" xmlns="http://www.w3.org/2000/svg">
<path id="Vector" d="M35.1296 6.33435C34.2807 6.33435 33.4665 6.00066 32.8663 5.4067C32.266 4.81274 31.9287 4.00716 31.9287 3.16717C31.9287 2.32719 32.266 1.52161 32.8663 0.927645C33.4665 0.333685 34.2807 0 35.1296 0H45.7991C46.6481 0 47.4622 0.333685 48.0625 0.927645C48.6628 1.52161 49 2.32719 49 3.16717V13.7244C49 14.5644 48.6628 15.37 48.0625 15.964C47.4622 16.5579 46.6481 16.8916 45.7991 16.8916C44.9502 16.8916 44.1361 16.5579 43.5358 15.964C42.9355 15.37 42.5983 14.5644 42.5983 13.7244V10.8106L34.0072 19.3113C32.6067 20.6961 30.7078 21.474 28.7279 21.474C26.748 21.474 24.8491 20.6961 23.4486 19.3113L16.6799 12.6138C16.5807 12.5155 16.463 12.4375 16.3334 12.3843C16.2038 12.331 16.0648 12.3036 15.9245 12.3036C15.7841 12.3036 15.6452 12.331 15.5155 12.3843C15.3859 12.4375 15.2682 12.5155 15.1691 12.6138L5.38296 22.2969C4.77618 22.8564 3.97363 23.1609 3.14439 23.1465C2.31515 23.132 1.52396 22.7996 0.93751 22.2193C0.351057 21.639 0.0151297 20.8562 0.000498683 20.0356C-0.0141323 19.2151 0.293675 18.421 0.859075 17.8206L10.6452 8.13753C12.0457 6.75275 13.9446 5.97487 15.9245 5.97487C17.9044 5.97487 19.8032 6.75275 21.2037 8.13753L27.9725 14.835C28.0716 14.9334 28.1893 15.0114 28.319 15.0646C28.4486 15.1178 28.5875 15.1452 28.7279 15.1452C28.8682 15.1452 29.0072 15.1178 29.1368 15.0646C29.2664 15.0114 29.3842 14.9334 29.4833 14.835L38.0701 6.33435H35.1296Z" fill="white"/>
</svg>
